<svg width="24" height="24" viewBox="0 0 24 24" fill="none" xmlns="http://www.w3.org/2000/svg">
<path d="M16.7812 9.41406C17.1198 9.58594 17.4245 9.79948 17.6953 10.0547C17.9714 10.3047 18.2057 10.5859 18.3984 10.8984C18.5911 11.2057 18.7396 11.5391 18.8438 11.8984C18.9479 12.2526 19 12.6198 19 13H18C18 12.5885 17.9193 12.2005 17.7578 11.8359C17.6016 11.4714 17.388 11.1536 17.1172 10.8828C16.8464 10.612 16.5286 10.3984 16.1641 10.2422C15.7995 10.0807 15.4115 10 15 10C14.5885 10 14.2005 10.0807 13.8359 10.2422C13.4714 10.3984 13.1536 10.612 12.8828 10.8828C12.612 11.1536 12.3958 11.4714 12.2344 11.8359C12.0781 12.2005 12 12.5885 12 13C12 13.474 11.8906 13.9245 11.6719 14.3516C11.4583 14.7786 11.1615 15.1328 10.7812 15.4141C11.1198 15.5859 11.4245 15.7995 11.6953 16.0547C11.9714 16.3047 12.2057 16.5859 12.3984 16.8984C12.5911 17.2057 12.7396 17.5391 12.8438 17.8984C12.9479 18.2526 13 18.6198 13 19H12C12 18.5885 11.9193 18.2005 11.7578 17.8359C11.6016 17.4714 11.388 17.1536 11.1172 16.8828C10.8464 16.612 10.5286 16.3984 10.1641 16.2422C9.79948 16.0807 9.41146 16 9 16C8.58854 16 8.20052 16.0807 7.83594 16.2422C7.47135 16.3984 7.15365 16.612 6.88281 16.8828C6.61198 17.1536 6.39583 17.4714 6.23438 17.8359C6.07812 18.2005 6 18.5885 6 19H5C5 18.6198 5.05208 18.2526 5.15625 17.8984C5.26042 17.5391 5.40885 17.2057 5.60156 16.8984C5.79427 16.5859 6.02604 16.3047 6.29688 16.0547C6.57292 15.7995 6.88021 15.5859 7.21875 15.4141C6.83854 15.1328 6.53906 14.7786 6.32031 14.3516C6.10677 13.9245 6 13.474 6 13C6 12.5885 6.07812 12.2005 6.23438 11.8359C6.39583 11.4714 6.61198 11.1536 6.88281 10.8828C7.15365 10.612 7.47135 10.3984 7.83594 10.2422C8.20052 10.0807 8.58854 10 9 10C9.47396 10 9.92448 10.1094 10.3516 10.3281C10.7786 10.5417 11.1328 10.8385 11.4141 11.2188C11.612 10.8281 11.8646 10.4792 12.1719 10.1719C12.4792 9.86458 12.8281 9.61198 13.2188 9.41406C12.8385 9.13281 12.5391 8.77865 12.3203 8.35156C12.1068 7.92448 12 7.47396 12 7C12 6.58854 12.0781 6.20052 12.2344 5.83594C12.3958 5.47135 12.612 5.15365 12.8828 4.88281C13.1536 4.61198 13.4714 4.39844 13.8359 4.24219C14.2005 4.08073 14.5885 4 15 4C15.4115 4 15.7995 4.08073 16.1641 4.24219C16.5286 4.39844 16.8464 4.61198 17.1172 4.88281C17.388 5.15365 17.6016 5.47135 17.7578 5.83594C17.9193 6.20052 18 6.58854 18 7C18 7.47396 17.8906 7.92448 17.6719 8.35156C17.4583 8.77865 17.1615 9.13281 16.7812 9.41406ZM9 15C9.27083 15 9.52865 14.9479 9.77344 14.8438C10.0182 14.7344 10.2292 14.5911 10.4062 14.4141C10.5885 14.2318 10.7318 14.0208 10.8359 13.7812C10.9453 13.5365 11 13.276 11 13C11 12.7292 10.9453 12.4714 10.8359 12.2266C10.7318 11.9818 10.5885 11.7708 10.4062 11.5938C10.2292 11.4115 10.0182 11.2682 9.77344 11.1641C9.52865 11.0547 9.27083 11 9 11C8.72396 11 8.46354 11.0547 8.21875 11.1641C7.97917 11.2682 7.76823 11.4115 7.58594 11.5938C7.40885 11.7708 7.26562 11.9818 7.15625 12.2266C7.05208 12.4714 7 12.7292 7 13C7 13.276 7.05208 13.5365 7.15625 13.7812C7.26562 14.0208 7.40885 14.2318 7.58594 14.4141C7.76823 14.5911 7.97917 14.7344 8.21875 14.8438C8.46354 14.9479 8.72396 15 9 15ZM13 7C13 7.27604 13.0521 7.53646 13.1562 7.78125C13.2656 8.02083 13.4089 8.23177 13.5859 8.41406C13.7682 8.59115 13.9792 8.73438 14.2188 8.84375C14.4635 8.94792 14.724 9 15 9C15.2708 9 15.5286 8.94792 15.7734 8.84375C16.0182 8.73438 16.2292 8.59115 16.4062 8.41406C16.5885 8.23177 16.7318 8.02083 16.8359 7.78125C16.9453 7.53646 17 7.27604 17 7C17 6.72917 16.9453 6.47135 16.8359 6.22656C16.7318 5.98177 16.5885 5.77083 16.4062 5.59375C16.2292 5.41146 16.0182 5.26823 15.7734 5.16406C15.5286 5.05469 15.2708 5 15 5C14.724 5 14.4635 5.05469 14.2188 5.16406C13.9792 5.26823 13.7682 5.41146 13.5859 5.59375C13.4089 5.77083 13.2656 5.98177 13.1562 6.22656C13.0521 6.47135 13 6.72917 13 7Z" fill="white"/>
</svg>
