<svg width="24" height="24" viewBox="0 0 24 24" fill="none" xmlns="http://www.w3.org/2000/svg">
<path d="M18.9333 9.18182V15.7273C18.9333 15.733 18.9583 15.8125 19.0083 15.9659C19.0583 16.1136 19.1194 16.304 19.1917 16.5369C19.2694 16.7642 19.3528 17.0142 19.4417 17.2869C19.5306 17.5597 19.6139 17.8182 19.6917 18.0625C19.7694 18.3011 19.8361 18.5085 19.8917 18.6847C19.9528 18.8551 19.9889 18.9602 20 19H4C4.01111 18.9602 4.04444 18.8551 4.1 18.6847C4.16111 18.5085 4.23056 18.3011 4.30833 18.0625C4.38611 17.8182 4.46944 17.5597 4.55833 17.2869C4.64722 17.0142 4.72778 16.7642 4.8 16.5369C4.87778 16.304 4.94167 16.1136 4.99167 15.9659C5.04167 15.8125 5.06667 15.733 5.06667 15.7273V9.18182H4V8.09091L12 4L20 8.09091V9.18182H18.9333ZM6.38333 8.09091H17.6167L12 5.21875L6.38333 8.09091ZM16.8 9.18182V15.7273H17.8667V9.18182H16.8ZM14.6667 9.18182V15.7273H15.7333V9.18182H14.6667ZM12.5333 9.18182V15.7273H13.6V9.18182H12.5333ZM10.4 9.18182V15.7273H11.4667V9.18182H10.4ZM8.26667 9.18182V15.7273H9.33333V9.18182H8.26667ZM6.13333 15.7273H7.2V9.18182H6.13333V15.7273ZM18.5167 17.9091L18.1667 16.8182H5.83333L5.48333 17.9091H18.5167Z" fill="white"/>
</svg>
