<svg width="50" height="50" viewBox="0 0 50 50" fill="none" xmlns="http://www.w3.org/2000/svg">
<circle cx="40" cy="10" r="10" fill="#0078D4"/>
<path d="M45.373 5.49805L37.8125 13.0586L34.627 9.87305L33.998 10.502L37.498 14.002L37.8125 14.3027L38.127 14.002L46.002 6.12695L45.373 5.49805Z" fill="white"/>
<path d="M45.373 5.49805L45.7266 5.14449L45.373 4.79094L45.0195 5.14449L45.373 5.49805ZM37.8125 13.0586L37.4589 13.4121L37.8125 13.7657L38.1661 13.4121L37.8125 13.0586ZM34.627 9.87305L34.9805 9.51949L34.627 9.16594L34.2734 9.51949L34.627 9.87305ZM33.998 10.502L33.6445 10.1484L33.2909 10.502L33.6445 10.8555L33.998 10.502ZM37.498 14.002L37.1444 14.3556L37.1524 14.3633L37.498 14.002ZM37.8125 14.3027L37.4669 14.6641L37.8125 14.9946L38.1581 14.6641L37.8125 14.3027ZM38.127 14.002L38.4726 14.3634L38.4805 14.3555L38.127 14.002ZM46.002 6.12695L46.3555 6.48051L46.7091 6.12695L46.3555 5.7734L46.002 6.12695ZM45.0195 5.14449L37.4589 12.705L38.1661 13.4121L45.7266 5.8516L45.0195 5.14449ZM38.1661 12.705L34.9805 9.51949L34.2734 10.2266L37.4589 13.4121L38.1661 12.705ZM34.2734 9.51949L33.6445 10.1484L34.3516 10.8555L34.9805 10.2266L34.2734 9.51949ZM33.6445 10.8555L37.1445 14.3555L37.8516 13.6484L34.3516 10.1484L33.6445 10.8555ZM37.1524 14.3633L37.4669 14.6641L38.1581 13.9414L37.8437 13.6406L37.1524 14.3633ZM38.1581 14.6641L38.4726 14.3633L37.7813 13.6406L37.4669 13.9414L38.1581 14.6641ZM38.4805 14.3555L46.3555 6.48051L45.6484 5.7734L37.7734 13.6484L38.4805 14.3555ZM46.3555 5.7734L45.7266 5.14449L45.0195 5.8516L45.6484 6.48051L46.3555 5.7734Z" fill="white"/>
<circle cx="40" cy="40" r="10" fill="#AFAFAF"/>
<path d="M45.373 35.498L37.8125 43.0586L34.627 39.873L33.998 40.502L37.498 44.002L37.8125 44.3027L38.127 44.002L46.002 36.127L45.373 35.498Z" fill="white"/>
<path d="M45.373 35.498L45.7266 35.1445L45.373 34.7909L45.0195 35.1445L45.373 35.498ZM37.8125 43.0586L37.4589 43.4121L37.8125 43.7657L38.1661 43.4121L37.8125 43.0586ZM34.627 39.873L34.9805 39.5195L34.627 39.1659L34.2734 39.5195L34.627 39.873ZM33.998 40.502L33.6445 40.1484L33.2909 40.502L33.6445 40.8555L33.998 40.502ZM37.498 44.002L37.1444 44.3556L37.1524 44.3633L37.498 44.002ZM37.8125 44.3027L37.4669 44.6641L37.8125 44.9946L38.1581 44.6641L37.8125 44.3027ZM38.127 44.002L38.4726 44.3634L38.4805 44.3555L38.127 44.002ZM46.002 36.127L46.3555 36.4805L46.7091 36.127L46.3555 35.7734L46.002 36.127ZM45.0195 35.1445L37.4589 42.705L38.1661 43.4121L45.7266 35.8516L45.0195 35.1445ZM38.1661 42.705L34.9805 39.5195L34.2734 40.2266L37.4589 43.4121L38.1661 42.705ZM34.2734 39.5195L33.6445 40.1484L34.3516 40.8555L34.9805 40.2266L34.2734 39.5195ZM33.6445 40.8555L37.1445 44.3555L37.8516 43.6484L34.3516 40.1484L33.6445 40.8555ZM37.1524 44.3633L37.4669 44.6641L38.1581 43.9414L37.8437 43.6406L37.1524 44.3633ZM38.1581 44.6641L38.4726 44.3633L37.7813 43.6406L37.4669 43.9414L38.1581 44.6641ZM38.4805 44.3555L46.3555 36.4805L45.6484 35.7734L37.7734 43.6484L38.4805 44.3555ZM46.3555 35.7734L45.7266 35.1445L45.0195 35.8516L45.6484 36.4805L46.3555 35.7734Z" fill="white"/>
<circle cx="10" cy="40" r="9.5" fill="#E2E2E2" stroke="#AFAFAF"/>
<circle cx="10" cy="10" r="9.5" fill="white" stroke="#AFAFAF"/>
<path d="M15.373 5.49805L7.8125 13.0586L4.62695 9.87305L3.99805 10.502L7.49805 14.002L7.8125 14.3027L8.12695 14.002L16.002 6.12695L15.373 5.49805Z" fill="white"/>
<path d="M15.373 5.49805L15.7266 5.14449L15.373 4.79094L15.0195 5.14449L15.373 5.49805ZM7.8125 13.0586L7.45895 13.4121L7.8125 13.7657L8.16605 13.4121L7.8125 13.0586ZM4.62695 9.87305L4.98051 9.51949L4.62695 9.16594L4.2734 9.51949L4.62695 9.87305ZM3.99805 10.502L3.64449 10.1484L3.29094 10.502L3.64449 10.8555L3.99805 10.502ZM7.49805 14.002L7.14441 14.3556L7.15244 14.3633L7.49805 14.002ZM7.8125 14.3027L7.46689 14.6641L7.8125 14.9946L8.15811 14.6641L7.8125 14.3027ZM8.12695 14.002L8.47265 14.3634L8.48051 14.3555L8.12695 14.002ZM16.002 6.12695L16.3555 6.48051L16.7091 6.12695L16.3555 5.7734L16.002 6.12695ZM15.0195 5.14449L7.45895 12.705L8.16605 13.4121L15.7266 5.8516L15.0195 5.14449ZM8.16605 12.705L4.98051 9.51949L4.2734 10.2266L7.45895 13.4121L8.16605 12.705ZM4.2734 9.51949L3.64449 10.1484L4.3516 10.8555L4.98051 10.2266L4.2734 9.51949ZM3.64449 10.8555L7.14449 14.3555L7.8516 13.6484L4.3516 10.1484L3.64449 10.8555ZM7.15244 14.3633L7.46689 14.6641L8.15811 13.9414L7.84366 13.6406L7.15244 14.3633ZM8.15811 14.6641L8.47256 14.3633L7.78134 13.6406L7.46689 13.9414L8.15811 14.6641ZM8.48051 14.3555L16.3555 6.48051L15.6484 5.7734L7.7734 13.6484L8.48051 14.3555ZM16.3555 5.7734L15.7266 5.14449L15.0195 5.8516L15.6484 6.48051L16.3555 5.7734Z" fill="white"/>
</svg>
