<svg width="8" height="6" viewBox="0 0 8 6" fill="none" xmlns="http://www.w3.org/2000/svg">
<path d="M6.66602 0.133789C6.80273 0.133789 6.92969 0.159831 7.04688 0.211914C7.16732 0.260742 7.27148 0.329102 7.35938 0.416992C7.44727 0.504883 7.51562 0.609049 7.56445 0.729492C7.61654 0.84668 7.64258 0.973633 7.64258 1.11035C7.64258 1.24056 7.61816 1.36589 7.56934 1.48633C7.52051 1.60677 7.45052 1.71257 7.35938 1.80371L3.48242 5.68555C3.39128 5.77669 3.28548 5.84831 3.16504 5.90039C3.0446 5.94922 2.91927 5.97363 2.78906 5.97363C2.65885 5.97363 2.53353 5.94922 2.41309 5.90039C2.29264 5.84831 2.18685 5.77669 2.0957 5.68555L0.328125 3.91797C0.236979 3.82682 0.165365 3.72103 0.113281 3.60059C0.0644531 3.48014 0.0400391 3.35482 0.0400391 3.22461C0.0400391 3.08789 0.0660807 2.96094 0.118164 2.84375C0.170247 2.72331 0.240234 2.61914 0.328125 2.53125C0.416016 2.44336 0.518555 2.375 0.635742 2.32617C0.756185 2.27409 0.884766 2.24805 1.02148 2.24805C1.15169 2.24805 1.27702 2.27246 1.39746 2.32129C1.5179 2.37012 1.6237 2.4401 1.71484 2.53125L2.78906 3.60547L5.97266 0.416992C6.0638 0.325846 6.1696 0.255859 6.29004 0.207031C6.41048 0.158203 6.53581 0.133789 6.66602 0.133789Z" fill="white"/>
</svg>
