<svg width="16" height="16" viewBox="0 0 16 16" fill="none" xmlns="http://www.w3.org/2000/svg">
<path d="M16 1V6H15V5H1V13H6V14H0V1H16ZM15 2H1V4H15V2ZM14.4375 7C14.6562 7 14.8594 7.03906 15.0469 7.11719C15.2396 7.19531 15.4062 7.30469 15.5469 7.44531C15.6875 7.58594 15.7969 7.75 15.875 7.9375C15.9583 8.125 16 8.32812 16 8.54688C16 8.75 15.9609 8.94792 15.8828 9.14062C15.8047 9.33333 15.6927 9.5026 15.5469 9.64844L9.94531 15.2656L7 16L7.73438 13.0547L13.3359 7.44531C13.4818 7.29948 13.651 7.1901 13.8438 7.11719C14.0365 7.03906 14.2344 7 14.4375 7ZM14.8359 8.94531C14.9453 8.83594 15 8.70312 15 8.54688C15 8.38542 14.9453 8.25521 14.8359 8.15625C14.7318 8.05208 14.599 8 14.4375 8C14.3646 8 14.2943 8.01302 14.2266 8.03906C14.1589 8.0599 14.099 8.09635 14.0469 8.14844L8.64062 13.5703L8.375 14.625L9.42969 14.3594L14.8359 8.94531Z" fill="#455460"/>
</svg>
