<svg width="272" height="206" viewBox="0 0 272 206" fill="none" xmlns="http://www.w3.org/2000/svg">
<path d="M199.544 84.3834C202.645 79.9529 205.425 75.3016 207.863 70.4659C210.002 65.6483 211.37 60.5176 211.914 55.2659C211.963 54.15 212.259 53.0593 212.779 52.0739C214.058 50.1739 216.539 50.7914 217.225 52.8434C217.468 53.8182 217.578 54.8216 217.554 55.8264C217.65 58.3748 218.395 60.8551 219.716 63.0274C221.136 65.2979 223.411 66.6469 225.253 68.5279C227.044 70.3324 228.674 72.294 230.122 74.3894C230.837 75.4534 232.312 77.3534 232.002 78.7594C231.203 81.9704 217.31 94.2729 204.611 98.2914" fill="white"/>
<path d="M204.62 98.6999C204.528 98.7018 204.437 98.6731 204.362 98.6182C204.288 98.5634 204.233 98.4853 204.206 98.3959C204.174 98.2863 204.185 98.1682 204.238 98.067C204.291 97.9657 204.38 97.8894 204.488 97.8544C217.554 93.7314 230.912 81.3909 231.588 78.6359C231.861 77.5719 230.78 76.0234 230.075 74.9974L229.812 74.6174C228.381 72.5393 226.767 70.5965 224.99 68.8129C224.35 68.1574 223.636 67.5589 222.95 66.9699C221.579 65.9246 220.38 64.6679 219.397 63.2459C218.041 61.0056 217.277 58.4508 217.178 55.8264V55.2564C217.193 54.4804 217.098 53.7063 216.896 52.9574C216.772 52.546 216.538 52.1773 216.22 51.8922C215.901 51.6071 215.511 51.4168 215.091 51.3424C214.72 51.2935 214.343 51.3578 214.008 51.5271C213.673 51.6963 213.396 51.9628 213.211 52.2924C212.743 53.1712 212.476 54.1453 212.431 55.1424V55.2754C211.89 60.5737 210.512 65.7501 208.352 70.6084C205.906 75.4629 203.113 80.1303 199.995 84.5734C199.963 84.6209 199.922 84.6615 199.874 84.6929C199.827 84.7243 199.774 84.7459 199.718 84.7565C199.662 84.7671 199.604 84.7664 199.549 84.7546C199.493 84.7427 199.44 84.7199 199.393 84.6874C199.347 84.6559 199.307 84.6153 199.276 84.568C199.245 84.5208 199.224 84.4677 199.213 84.412C199.203 84.3563 199.203 84.2991 199.215 84.2436C199.226 84.1881 199.249 84.1355 199.281 84.0889C202.33 79.6954 205.057 75.0819 207.44 70.2854C209.558 65.5092 210.913 60.4237 211.454 55.2184V55.0854C211.513 53.9434 211.835 52.831 212.394 51.8364C212.666 51.3706 213.068 50.996 213.549 50.7595C214.031 50.523 214.57 50.435 215.101 50.5064C215.678 50.6014 216.218 50.857 216.66 51.2446C217.101 51.6322 217.427 52.1365 217.601 52.7009C217.833 53.5289 217.947 54.3863 217.94 55.2469V55.8074C218.029 58.2806 218.748 60.6888 220.026 62.7994C220.966 64.1452 222.108 65.3344 223.41 66.3239C224.115 66.9224 224.839 67.5399 225.507 68.2239C227.321 70.0442 228.966 72.0285 230.423 74.1519L230.686 74.5129C231.485 75.6719 232.688 77.4199 232.331 78.8639C231.504 82.2364 217.611 94.6054 204.648 98.6999C204.639 98.7004 204.629 98.7004 204.62 98.6999V98.6999Z" fill="#231F20"/>
<path d="M75.2288 54.1544C75.2288 54.1544 120.678 57.242 126.337 60.8045C131.995 64.367 151.811 87.452 165.666 88.934C171.702 89.6294 177.815 89.0859 183.638 87.3359C189.461 85.5859 194.874 82.6656 199.553 78.75L209.602 99.4885C209.602 99.4885 183.94 124.017 162.226 118.346C145.672 114.023 119.672 100.467 119.672 100.467L72.6062 113.558L75.2288 54.1544Z" fill="#231F20"/>
<path d="M168.984 119.667C166.664 119.676 164.352 119.388 162.103 118.812C146.34 114.698 121.9 102.139 119.625 100.98L72.7283 114.014C72.656 114.033 72.5803 114.036 72.507 114.021C72.4336 114.006 72.3647 113.975 72.3053 113.929C72.2484 113.88 72.2034 113.819 72.174 113.749C72.1446 113.68 72.1317 113.605 72.1361 113.53L74.7587 54.1355C74.7683 54.0082 74.8255 53.8894 74.9185 53.803C74.9657 53.761 75.0209 53.7293 75.0807 53.7097C75.1405 53.6901 75.2037 53.683 75.2663 53.689C77.1463 53.8125 120.894 56.824 126.59 60.339C129.335 62.4103 131.93 64.6771 134.355 67.122C142.946 75.178 155.918 87.357 165.713 88.4115C171.681 89.0811 177.72 88.5376 183.477 86.8131C189.234 85.0886 194.591 82.218 199.233 78.37C199.286 78.3184 199.35 78.2802 199.421 78.2587C199.491 78.2372 199.565 78.233 199.638 78.2465C199.71 78.2596 199.778 78.2896 199.837 78.3341C199.896 78.3787 199.943 78.4365 199.976 78.503L210.025 99.2415C210.067 99.3343 210.08 99.438 210.061 99.5384C210.043 99.6387 209.994 99.7308 209.921 99.802C209.686 100.068 188.912 119.667 168.984 119.667ZM119.672 99.992C119.748 99.9915 119.822 100.011 119.888 100.049C120.151 100.182 146.029 113.625 162.338 117.89C182.417 123.134 206.302 101.892 209.019 99.3935L199.403 79.5195C189.863 87.1784 177.722 90.7283 165.61 89.3995C155.505 88.3165 142.392 76.0045 133.715 67.863C130.322 64.6805 127.652 62.163 126.092 61.213C120.903 57.964 80.5585 55.0285 75.6799 54.6865L73.1043 112.95L119.55 100.04L119.672 99.992Z" fill="#231F20"/>
<path d="M133.556 134.667C134.242 120.208 134.759 103.184 133.763 96.9044C132.531 95.3749 130.106 92.7624 130.106 92.7624C129.82 80.9532 127.753 69.2573 123.977 58.0779L116.457 57.1279C116.457 57.1279 121.082 70.6369 121.656 92.4299L82.6925 90.1499C82.6925 90.1499 81.809 67.2644 75.8118 53.0999H67.6056C67.6056 53.0999 67.0228 78.6739 66.5246 92.9999C66.5246 92.9999 56.9836 101.16 54.3046 105.217C52.9792 107.231 52.9886 121.167 53.3646 134.667H133.556Z" fill="#1CAF68"/>
<path d="M171.72 116.161C171.983 116.048 172.202 115.85 172.342 115.598C172.482 115.346 172.536 115.054 172.495 114.768C172.455 114.482 172.321 114.218 172.117 114.016C171.912 113.814 171.647 113.687 171.363 113.653C162.113 112.418 141.17 109.644 130.003 108.219C129.094 108.101 128.17 108.192 127.3 108.486C126.431 108.78 125.638 109.268 124.982 109.915C124.326 110.562 123.823 111.35 123.51 112.221C123.198 113.092 123.085 114.023 123.178 114.945L124.523 128.501C124.619 129.471 124.942 130.404 125.464 131.223C125.987 132.042 126.694 132.724 127.528 133.213C128.363 133.702 129.3 133.983 130.263 134.034C131.226 134.086 132.187 133.905 133.067 133.508L171.72 116.161Z" fill="white"/>
<path d="M130.595 134.486C128.98 134.472 127.427 133.858 126.231 132.762C125.035 131.665 124.28 130.162 124.109 128.539L122.755 114.992C122.657 114.005 122.781 113.009 123.116 112.076C123.452 111.144 123.991 110.3 124.694 109.607C125.396 108.914 126.244 108.39 127.175 108.074C128.106 107.759 129.095 107.659 130.069 107.782C140.85 109.159 160.619 111.781 171.429 113.216C171.803 113.267 172.15 113.441 172.418 113.709C172.687 113.978 172.861 114.328 172.915 114.705C172.969 115.083 172.9 115.468 172.719 115.803C172.537 116.138 172.252 116.403 171.908 116.56L133.236 133.907C132.406 134.287 131.506 134.484 130.595 134.486V134.486ZM129.232 108.599C128.439 108.595 127.654 108.759 126.928 109.082C126.202 109.406 125.551 109.88 125.019 110.474C124.487 111.069 124.085 111.77 123.839 112.532C123.593 113.294 123.509 114.1 123.592 114.897L124.946 128.454C125.029 129.357 125.325 130.227 125.809 130.992C126.292 131.756 126.949 132.393 127.725 132.849C128.501 133.305 129.373 133.568 130.27 133.615C131.166 133.661 132.061 133.491 132.879 133.118L171.56 115.8C171.733 115.722 171.877 115.589 171.969 115.421C172.06 115.253 172.096 115.06 172.069 114.87C172.043 114.68 171.956 114.504 171.821 114.368C171.687 114.233 171.513 114.145 171.325 114.118C160.506 112.684 140.738 110.062 129.965 108.684C129.723 108.641 129.478 108.613 129.232 108.599V108.599Z" fill="#231F20"/>
<path d="M136.611 121.5C136.611 121.5 122.915 125.043 120.951 123.742C118.986 122.44 116.251 115.41 116.251 115.41L106.86 118.773L106.625 113.767C106.625 113.767 117.266 108.542 118.206 110.071C119.146 111.601 121.298 120.749 123.019 120.521C124.739 120.293 136.479 118.65 136.479 118.65" fill="white"/>
<path d="M122.671 124.445C122 124.501 121.326 124.38 120.716 124.094C118.92 122.906 116.617 117.444 116.016 115.952L107.057 119.182C106.994 119.205 106.926 119.213 106.859 119.204C106.792 119.196 106.728 119.172 106.672 119.135C106.616 119.097 106.57 119.046 106.537 118.987C106.504 118.927 106.486 118.861 106.484 118.793L106.249 113.796C106.243 113.71 106.263 113.625 106.304 113.551C106.346 113.477 106.409 113.416 106.484 113.378C110.592 111.364 117.623 108.219 118.61 109.844C119.138 110.955 119.575 112.108 119.917 113.292C120.537 115.192 122.154 120.17 123 120.056C124.701 119.8 136.32 118.232 136.442 118.223C136.497 118.215 136.554 118.218 136.608 118.232C136.663 118.247 136.714 118.272 136.758 118.306C136.803 118.341 136.84 118.384 136.868 118.433C136.896 118.482 136.914 118.537 136.921 118.593C136.929 118.649 136.926 118.706 136.912 118.761C136.897 118.816 136.873 118.868 136.838 118.913C136.804 118.958 136.762 118.996 136.713 119.024C136.664 119.052 136.61 119.071 136.555 119.078C136.432 119.078 124.814 120.664 123.122 120.921C121.712 121.139 120.622 118.147 119.099 113.568C118.773 112.45 118.368 111.358 117.886 110.3C117.35 109.73 112.453 111.44 107.114 114.033L107.311 118.166L116.11 114.993C116.215 114.957 116.329 114.963 116.43 115.009C116.531 115.054 116.611 115.137 116.655 115.24C117.407 117.14 119.691 122.365 121.204 123.372C122.52 124.246 131.3 122.422 136.526 121.073C136.581 121.058 136.637 121.055 136.693 121.063C136.748 121.07 136.802 121.089 136.85 121.118C136.899 121.146 136.941 121.184 136.975 121.23C137.009 121.275 137.034 121.326 137.048 121.381C137.062 121.436 137.066 121.493 137.058 121.55C137.05 121.606 137.032 121.66 137.003 121.709C136.975 121.758 136.937 121.801 136.893 121.835C136.848 121.869 136.797 121.894 136.743 121.909C134.825 122.45 126.694 124.445 122.671 124.445Z" fill="#231F20"/>
<path d="M79.4588 99.5359C79.4588 99.5359 96.2942 99.2414 99.9696 100.381C103.645 101.521 114.756 112.731 113.571 117.263C112.387 121.794 101.22 127.295 97.394 125.651C93.5682 124.008 89.4228 118.431 89.4228 118.431C89.4228 118.431 78.3214 113.862 72.6062 113.558L79.4588 99.5359Z" fill="white"/>
<path d="M99.1234 126.383C98.4814 126.396 97.8429 126.283 97.2434 126.051C93.5962 124.474 89.7234 119.572 89.1688 118.793C88.0126 118.318 77.8888 114.271 72.5966 113.986C72.5264 113.981 72.4582 113.96 72.3977 113.924C72.3372 113.887 72.2861 113.837 72.2488 113.777C72.2143 113.712 72.1962 113.641 72.1962 113.568C72.1962 113.495 72.2143 113.423 72.2488 113.359L79.1014 99.346C79.1349 99.2734 79.1879 99.2117 79.2544 99.168C79.3209 99.1243 79.3981 99.1004 79.4774 99.099C80.1636 99.099 96.3974 98.8235 100.157 99.9635C104.134 101.189 115.301 112.599 114.041 117.377C113.346 120.056 109.651 122.716 106.437 124.303C104.169 125.504 101.678 126.212 99.1234 126.383V126.383ZM73.2734 113.169C79.1202 113.748 89.1406 117.852 89.5824 118.033C89.6551 118.06 89.7175 118.11 89.761 118.175C89.808 118.223 93.897 123.666 97.563 125.253C99.161 125.937 102.479 125.253 106.023 123.524C109.849 121.624 112.659 119.135 113.176 117.149C114.295 112.903 103.335 101.854 99.866 100.79C96.5384 99.764 81.8838 99.935 79.7406 99.9635L73.2734 113.169Z" fill="#231F20"/>
<path d="M68.132 54.1544C59.9066 56.3391 52.0651 59.7968 44.8858 64.4049C38.4938 68.5849 10.1058 86.1219 5.71603 91.3184C1.32623 96.5149 -4.41717 112.76 9.36323 119.172C23.1436 125.585 74.8436 117.044 74.8436 117.044L83.4728 96.7239L59.1644 97.9019L72.6064 91.4704C72.6064 91.4704 73.0764 84.1079 71.6664 71.0074C70.5008 59.4269 68.132 54.1544 68.132 54.1544Z" fill="#231F20"/>
<path d="M27.4299 122.041C19.7313 122.041 13.0291 121.395 9.16567 119.6C4.46566 117.415 1.58926 113.966 0.592865 109.349C-0.920536 102.329 2.47286 94.3964 5.35867 91.0049C9.04347 86.6634 28.8587 74.0569 39.5089 67.2549C41.7273 65.8489 43.5133 64.7089 44.6319 63.9774C51.8622 59.3506 59.7532 55.8741 68.0285 53.6699C68.1344 53.6447 68.2458 53.6574 68.3435 53.7059C68.4412 53.7544 68.5193 53.8357 68.5643 53.9359C68.6583 54.1544 70.9707 59.4079 72.1739 70.9314C72.9919 77.7446 73.3061 84.61 73.1139 91.4704C73.1045 91.5545 73.0747 91.6349 73.0272 91.7045C72.9796 91.7741 72.9157 91.8308 72.8413 91.8694L61.5613 97.2844L83.5197 96.2204C83.5996 96.2161 83.6793 96.2321 83.7516 96.267C83.8238 96.3018 83.8863 96.3544 83.9333 96.4199C83.9757 96.4888 84.002 96.5665 84.0101 96.6472C84.0183 96.7278 84.0081 96.8093 83.9803 96.8854L75.3511 117.206C75.3196 117.28 75.2704 117.344 75.2081 117.394C75.1457 117.444 75.0721 117.477 74.9939 117.491C73.3959 117.766 47.1511 122.041 27.4299 122.041ZM67.8499 54.7149C59.824 56.9137 52.169 60.3144 45.1395 64.8039C44.0209 65.5354 42.2349 66.7039 40.0165 68.0909C29.4039 74.8359 9.66387 87.3949 6.06367 91.6224C3.30946 94.8999 0.0664641 102.443 1.51406 109.15C2.45406 113.463 5.15186 116.683 9.56046 118.735C22.5607 124.777 70.5665 117.253 74.5145 116.617L82.7395 97.2369L59.1831 98.3769C59.0741 98.3823 58.9667 98.3492 58.8793 98.2834C58.7918 98.2175 58.7297 98.123 58.7037 98.0159C58.6792 97.9086 58.6908 97.7961 58.7368 97.6963C58.7828 97.5965 58.8605 97.515 58.9575 97.4649L72.1175 91.1569C72.2743 84.4422 71.9602 77.7247 71.1775 71.0549C70.1999 61.3744 68.3857 56.0924 67.8499 54.7149V54.7149Z" fill="#231F20"/>
<path d="M73.9599 11.3C74.0788 10.4506 74.3063 9.62031 74.6367 8.83003C75.9809 5.83752 80.3989 4.46952 83.3599 4.18452C86.8755 3.85202 89.9399 4.23202 93.0137 2.53152C96.1349 0.863085 99.7238 0.313836 103.194 0.973524C104.342 1.1862 105.454 1.56704 106.493 2.10402C108.066 2.96865 109.372 4.25586 110.266 5.8234C111.16 7.39095 111.608 9.17781 111.56 10.9865C111.381 15.2615 108.824 19.4225 106.004 22.4625C104.11 24.3831 102.05 26.1285 99.8475 27.678L95.2791 31.098C90.5791 34.594 83.9991 38.052 77.9267 36.266C73.3113 34.898 70.8579 29.73 70.0213 25.322C69.0813 20.4675 68.4797 14.758 73.7813 12.3355C73.8471 11.9745 73.8941 11.623 73.9599 11.3Z" fill="white"/>
<path d="M81.3859 37.2254C80.1651 37.2316 78.9497 37.0621 77.7763 36.7219C71.7979 34.9454 69.9649 27.6209 69.5419 25.4169C68.8463 21.7119 67.5397 14.8624 73.3677 12.0124C73.3677 11.7369 73.4429 11.4615 73.4899 11.186C73.6097 10.2997 73.8469 9.43383 74.1949 8.61145C75.5955 5.48595 79.9853 4.00395 83.3129 3.68095C84.2529 3.59545 85.0707 3.55745 85.9073 3.51945C88.3983 3.40545 90.5509 3.31045 92.7787 2.08495C95.9954 0.366691 99.6933 -0.199248 103.269 0.479453C104.463 0.696918 105.619 1.09063 106.7 1.64795C108.36 2.55578 109.737 3.91301 110.677 5.56749C111.617 7.22196 112.082 9.10828 112.021 11.015C111.804 16.1544 108.364 20.6004 106.334 22.7854C104.427 24.7324 102.347 26.4974 100.12 28.0579L95.5799 31.4779C91.8199 34.2614 86.6217 37.2254 81.3859 37.2254ZM74.4111 11.3474C74.3547 11.6989 74.3077 12.0504 74.2607 12.4019C74.2504 12.4809 74.2198 12.5558 74.172 12.6192C74.1242 12.6825 74.0608 12.7321 73.9881 12.7629C68.9873 15.0429 69.5513 20.3629 70.4725 25.2364C71.2809 29.5019 73.6967 34.5179 78.0489 35.8099C84.0461 37.5769 90.5697 34.0144 94.9689 30.7179L99.5373 27.2979C101.718 25.7684 103.757 24.0418 105.629 22.1394C107.574 20.0399 110.864 15.8029 111.071 10.9675C111.123 9.24221 110.699 7.53641 109.848 6.04018C108.996 4.54395 107.75 3.31609 106.249 2.49345C105.257 1.98045 104.196 1.61869 103.1 1.41995C99.7368 0.770233 96.2549 1.29974 93.2299 2.92095C90.8141 4.25095 88.4453 4.35545 85.9449 4.46945C85.1271 4.46945 84.2717 4.54545 83.3975 4.63095C80.9159 4.86845 76.3757 6.05595 75.0503 9.00095C74.7398 9.75263 74.525 10.5411 74.4111 11.3474V11.3474Z" fill="#231F20"/>
<path d="M105.262 44.9205L107.057 59.1705C107.057 59.1705 105.685 66.7705 96.9242 66.077C94.3344 65.8527 91.8265 65.0483 89.5827 63.7222C87.3389 62.3961 85.4155 60.5816 83.9523 58.4104L80.1923 34.3565C80.1923 34.3565 85.9074 29.958 81.856 16.5345C89.2272 18.409 96.9619 18.2416 104.247 16.05C104.247 16.05 110.47 30.3 110.517 37.0735C110.564 43.847 105.262 44.9205 105.262 44.9205Z" fill="white"/>
<path d="M97.9955 66.6279C97.6383 66.6279 97.2717 66.6279 96.8863 66.6279C94.2188 66.4097 91.6343 65.5867 89.325 64.2199C87.0157 62.8531 85.041 60.9778 83.5477 58.7334C83.5145 58.6814 83.4921 58.6233 83.4819 58.5624L79.7219 34.4988C79.7075 34.415 79.7165 34.3287 79.7481 34.2498C79.7797 34.1709 79.8324 34.1025 79.9005 34.0523C79.9475 34.0523 85.2867 29.6349 81.3951 16.7528C81.3717 16.6698 81.3708 16.5821 81.3922 16.4985C81.4137 16.415 81.4569 16.3388 81.5172 16.2778C81.5776 16.2168 81.653 16.1732 81.7356 16.1515C81.8183 16.1298 81.9051 16.1308 81.9873 16.1543C89.2808 17.9744 96.9228 17.794 104.124 15.6318C104.234 15.6011 104.351 15.611 104.455 15.6598C104.558 15.7085 104.641 15.7929 104.688 15.8978C104.942 16.4773 110.949 30.3189 110.996 37.1019C110.996 43.0299 107.104 44.8539 105.788 45.3004L107.527 59.1894C107.536 59.2364 107.536 59.2848 107.527 59.3318C107.034 61.4831 105.811 63.3916 104.069 64.7247C102.327 66.0579 100.178 66.7314 97.9955 66.6279V66.6279ZM84.3937 58.2773C85.8308 60.3563 87.7004 62.0925 89.8713 63.3643C92.0423 64.6361 94.4622 65.4127 96.9615 65.6398C104.857 66.2478 106.418 59.9399 106.578 59.1894L104.792 44.9394C104.778 44.8204 104.809 44.7004 104.878 44.6035C104.948 44.5066 105.051 44.44 105.168 44.4169C105.365 44.4169 110.084 43.3148 110.046 37.0353C110.046 31.0503 104.961 18.8903 103.974 16.5818C96.9844 18.5768 89.615 18.7922 82.5231 17.2088C85.7849 28.8369 81.7147 33.5678 80.6431 34.5368L84.3937 58.2773Z" fill="#231F20"/>
<path d="M85.0518 33.1499C84.5752 32.0263 83.7506 31.0895 82.7018 30.4804C81.7012 29.9608 80.6204 29.6171 79.5058 29.4639C78.8873 29.3191 78.2442 29.3191 77.6258 29.4639C77.2116 29.5982 76.8282 29.8146 76.4978 30.1004C75.6967 30.7105 75.1315 31.5841 74.8998 32.5704C74.7958 33.3984 74.8926 34.2396 75.1818 35.0214C75.4261 35.8946 75.7832 36.7315 76.244 37.5104C76.7242 38.273 77.3492 38.9319 78.0829 39.4489C78.8166 39.9659 79.6445 40.3308 80.5186 40.5225C81.3926 40.7142 82.2957 40.7289 83.1754 40.5657C84.0552 40.4026 84.8942 40.0648 85.644 39.5719" fill="white"/>
<path d="M81.9123 41.1584C81.4006 41.1571 80.8904 41.103 80.3895 40.9969C78.5023 40.5716 76.8572 39.4109 75.8117 37.7669C75.3292 36.9517 74.9532 36.0768 74.6931 35.1639C74.3819 34.3082 74.2818 33.3886 74.4017 32.4849C74.6728 31.3595 75.3414 30.373 76.2817 29.7109C76.6604 29.3879 77.0979 29.1426 77.5695 28.9889C78.2432 28.8273 78.945 28.8273 79.6187 28.9889C80.787 29.1495 81.9191 29.5127 82.9651 30.0624C84.0941 30.7125 84.987 31.7115 85.5125 32.9124C85.5371 32.9704 85.5501 33.0327 85.5506 33.0957C85.5512 33.1588 85.5393 33.2213 85.5157 33.2797C85.492 33.3381 85.4571 33.3911 85.413 33.4357C85.3689 33.4803 85.3165 33.5155 85.2587 33.5394C85.2021 33.5642 85.1411 33.5771 85.0794 33.5775C85.0176 33.578 84.9565 33.5659 84.8995 33.5419C84.8425 33.518 84.7908 33.4828 84.7476 33.4383C84.7043 33.3938 84.6704 33.341 84.6477 33.2829C84.21 32.2554 83.4548 31.3989 82.4951 30.8414C81.5399 30.3543 80.5103 30.0331 79.4495 29.8914C78.9174 29.7689 78.3648 29.7689 77.8327 29.8914C77.4884 30.0147 77.1696 30.2016 76.8927 30.4424C76.1494 30.9763 75.6141 31.7559 75.3793 32.6464C75.2879 33.3988 75.3815 34.1624 75.6519 34.8694C75.8798 35.7048 76.2215 36.5041 76.6671 37.2444C77.1137 37.9552 77.6958 38.569 78.3794 39.0501C79.063 39.5313 79.8346 39.8702 80.649 40.047C81.4635 40.2238 82.3047 40.2351 83.1235 40.0801C83.9424 39.9252 84.7225 39.6071 85.4185 39.1444C85.5233 39.0766 85.6504 39.0535 85.772 39.0802C85.8936 39.1069 85.9997 39.1812 86.0671 39.2869C86.1021 39.3384 86.1264 39.3964 86.1387 39.4575C86.151 39.5187 86.151 39.5817 86.1387 39.6429C86.1265 39.704 86.1021 39.762 86.0672 39.8135C86.0323 39.865 85.9875 39.9088 85.9355 39.9424C84.7412 40.737 83.3423 41.1599 81.9123 41.1584V41.1584Z" fill="#231F20"/>
<path d="M106.446 53.1C103.212 52.952 100.08 51.9068 97.3939 50.0791C93.0981 47.0676 93.0793 44.9206 93.0793 44.9206C93.0793 44.9206 99.6029 47.2481 104.952 45.2246L106.446 53.1Z" fill="#231F20"/>
<path d="M106.446 53.537C103.116 53.3945 99.8908 52.3189 97.1308 50.4305C92.7598 47.3715 92.6188 45.1295 92.6188 44.8825C92.6199 44.8066 92.6382 44.732 92.6725 44.6644C92.7067 44.5969 92.7559 44.5382 92.8162 44.493C92.8765 44.4489 92.9468 44.4207 93.0206 44.4107C93.0944 44.4008 93.1695 44.4095 93.2392 44.436C93.305 44.436 99.6782 46.6875 104.792 44.74C104.856 44.7151 104.924 44.7047 104.993 44.7095C105.061 44.7142 105.128 44.734 105.188 44.7675C105.248 44.801 105.3 44.8474 105.34 44.9033C105.38 44.9593 105.408 45.0235 105.422 45.0915L106.907 52.9765C106.919 53.0444 106.918 53.1143 106.901 53.1815C106.885 53.2487 106.855 53.3116 106.813 53.366C106.767 53.4187 106.71 53.4612 106.647 53.4907C106.584 53.5201 106.516 53.5359 106.446 53.537V53.537ZM93.7656 45.595C94.1322 46.412 95.1098 47.8655 97.6572 49.6515C100.122 51.3155 102.966 52.3161 105.92 52.5585L104.641 45.8135C100.364 47.191 95.6644 46.1365 93.7656 45.595Z" fill="#231F20"/>
<path d="M95.9746 25.9964C95.9746 25.9964 101.671 31.6964 100.863 33.0929C100.054 34.4894 96.971 34.2804 96.971 34.2804" fill="white"/>
<path d="M97.3563 34.765H96.9427C96.8181 34.7575 96.7015 34.7002 96.6187 34.6058C96.5358 34.5113 96.4935 34.3875 96.5009 34.2615C96.5084 34.1356 96.5651 34.0177 96.6585 33.934C96.752 33.8503 96.8745 33.8075 96.9991 33.815C97.7229 33.815 99.9131 33.815 100.458 32.865C100.787 32.3235 98.4937 29.217 95.6455 26.348C95.557 26.2586 95.5073 26.1373 95.5073 26.0108C95.5073 25.8843 95.557 25.763 95.6455 25.6735C95.7341 25.5841 95.8541 25.5338 95.9792 25.5338C96.1044 25.5338 96.2244 25.5841 96.3129 25.6735C98.0989 27.45 102.16 31.82 101.22 33.34C100.496 34.6225 98.3057 34.765 97.3563 34.765Z" fill="#231F20"/>
<path d="M90.7698 28.1631C91.3786 28.0942 91.7944 27.3367 91.6985 26.4712C91.6025 25.6056 91.0313 24.9598 90.4225 25.0287C89.8137 25.0976 89.3979 25.8552 89.4939 26.7207C89.5898 27.5862 90.161 28.232 90.7698 28.1631Z" fill="#231F20"/>
<path d="M101.501 26.0143C102.063 25.7672 102.239 24.9195 101.895 24.1209C101.551 23.3224 100.817 22.8754 100.255 23.1226C99.6933 23.3698 99.5169 24.2175 99.861 25.016C100.205 25.8145 100.939 26.2615 101.501 26.0143Z" fill="#231F20"/>
<path d="M100.599 43.3244C100.411 43.3244 100.214 43.3244 100.007 43.3244C98.0322 43.2925 96.0946 42.7751 94.3618 41.8167C92.629 40.8583 91.1532 39.4879 90.062 37.8239C90.025 37.752 90.0056 37.6722 90.0056 37.5911C90.0056 37.5101 90.025 37.4302 90.062 37.3584C90.1007 37.2887 90.1565 37.2302 90.224 37.1886C90.2915 37.147 90.3684 37.1237 90.4474 37.1209L106.427 36.2944C106.551 36.2892 106.671 36.333 106.762 36.4166C106.854 36.5001 106.909 36.6165 106.916 36.7409C107.001 38.5453 106.383 40.3115 105.196 41.6619C104.583 42.2411 103.858 42.6873 103.068 42.9732C102.277 43.2591 101.437 43.3786 100.599 43.3244V43.3244ZM91.3498 38.0044C92.4082 39.3199 93.734 40.3902 95.2374 41.1425C96.7409 41.8949 98.3868 42.3117 100.064 42.3649C100.862 42.4718 101.674 42.4024 102.443 42.1612C103.213 41.9201 103.921 41.5131 104.519 40.9684C105.425 39.9443 105.938 38.6269 105.967 37.2539L91.3498 38.0044Z" fill="#231F20"/>
<path d="M105.487 137.878H45.553V158.227H105.487V137.878Z" fill="white"/>
<path d="M105.487 158.702H45.553C45.4284 158.702 45.3088 158.652 45.2207 158.563C45.1325 158.474 45.083 158.353 45.083 158.227V137.878C45.083 137.752 45.1325 137.631 45.2207 137.542C45.3088 137.453 45.4284 137.403 45.553 137.403H105.487C105.612 137.403 105.732 137.453 105.82 137.542C105.908 137.631 105.957 137.752 105.957 137.878V158.227C105.957 158.353 105.908 158.474 105.82 158.563C105.732 158.652 105.612 158.702 105.487 158.702V158.702ZM46.023 157.752H104.98V138.353H46.023V157.752Z" fill="#D1D3D4"/>
<path d="M42.9117 137.878H2.23792V158.227H42.9117V137.878Z" fill="white"/>
<path d="M42.9397 158.702H2.2377C2.11305 158.702 1.9935 158.652 1.90536 158.563C1.81722 158.474 1.7677 158.353 1.7677 158.227V137.878C1.7677 137.752 1.81722 137.631 1.90536 137.542C1.9935 137.453 2.11305 137.403 2.2377 137.403H42.9397C43.0644 137.403 43.1839 137.453 43.2721 137.542C43.3602 137.631 43.4097 137.752 43.4097 137.878V158.227C43.4097 158.353 43.3602 158.474 43.2721 158.563C43.1839 158.652 43.0644 158.702 42.9397 158.702V158.702ZM2.7359 157.752H42.4697V138.353H2.7077L2.7359 157.752Z" fill="#D1D3D4"/>
<path d="M169.003 137.878H109.069V158.227H169.003V137.878Z" fill="white"/>
<path d="M169.003 158.702H109.069C108.944 158.702 108.825 158.652 108.737 158.563C108.649 158.474 108.599 158.353 108.599 158.227V137.878C108.599 137.752 108.649 137.631 108.737 137.542C108.825 137.453 108.944 137.403 109.069 137.403H169.003C169.128 137.403 169.248 137.453 169.336 137.542C169.424 137.631 169.473 137.752 169.473 137.878V158.227C169.473 158.353 169.424 158.474 169.336 158.563C169.248 158.652 169.128 158.702 169.003 158.702V158.702ZM109.539 157.752H168.533V138.353H109.539V157.752Z" fill="#D1D3D4"/>
<path d="M271.313 137.878H229.568V158.227H271.313V137.878Z" fill="white"/>
<path d="M271.36 158.702H229.567C229.443 158.702 229.323 158.652 229.235 158.563C229.147 158.474 229.097 158.353 229.097 158.227V137.878C229.097 137.752 229.147 137.631 229.235 137.542C229.323 137.453 229.443 137.403 229.567 137.403H271.36C271.485 137.403 271.604 137.453 271.692 137.542C271.78 137.631 271.83 137.752 271.83 137.878V158.227C271.83 158.353 271.78 158.474 271.692 158.563C271.604 158.652 271.485 158.702 271.36 158.702V158.702ZM230.084 157.752H270.89V138.353H230L230.084 157.752Z" fill="#D1D3D4"/>
<path d="M89.2441 161.134H29.3097V181.483H89.2441V161.134Z" fill="white"/>
<path d="M89.235 181.958H29.31C29.1853 181.958 29.0658 181.908 28.9776 181.819C28.8895 181.73 28.84 181.609 28.84 181.483V161.134C28.84 161.008 28.8895 160.887 28.9776 160.798C29.0658 160.709 29.1853 160.659 29.31 160.659H89.235C89.3596 160.659 89.4791 160.709 89.5673 160.798C89.6554 160.887 89.705 161.008 89.705 161.134V181.483C89.705 181.609 89.6554 181.73 89.5673 181.819C89.4791 181.908 89.3596 181.958 89.235 181.958ZM29.78 181.008H88.765V161.609H29.78V181.008Z" fill="#D1D3D4"/>
<path d="M151.811 161.134H91.8762V181.483H151.811V161.134Z" fill="white"/>
<path d="M151.811 181.958H91.8764C91.7517 181.958 91.6322 181.908 91.544 181.819C91.4559 181.73 91.4064 181.609 91.4064 181.483V161.134C91.4064 161.008 91.4559 160.887 91.544 160.798C91.6322 160.709 91.7517 160.659 91.8764 160.659H151.811C151.935 160.659 152.055 160.709 152.143 160.798C152.231 160.887 152.281 161.008 152.281 161.134V181.483C152.281 181.609 152.231 181.73 152.143 181.819C152.055 181.908 151.935 181.958 151.811 181.958ZM92.3464 181.008H151.341V161.609H92.3464V181.008Z" fill="#D1D3D4"/>
<path d="M214.377 161.134H154.443V181.483H214.377V161.134Z" fill="white"/>
<path d="M214.377 181.958H154.443C154.318 181.958 154.198 181.908 154.11 181.819C154.022 181.73 153.973 181.609 153.973 181.483V161.134C153.975 161.009 154.025 160.889 154.113 160.801C154.201 160.712 154.319 160.661 154.443 160.659H214.377C214.502 160.659 214.621 160.709 214.709 160.798C214.798 160.887 214.847 161.008 214.847 161.134V181.483C214.847 181.609 214.798 181.73 214.709 181.819C214.621 181.908 214.502 181.958 214.377 181.958ZM154.913 181.008H213.907V161.609H154.913V181.008Z" fill="#D1D3D4"/>
<path d="M259.535 161.134H217.018V181.483H259.535V161.134Z" fill="white"/>
<path d="M259.535 181.958H217.018C216.894 181.958 216.774 181.908 216.686 181.819C216.598 181.73 216.548 181.609 216.548 181.483V161.134C216.548 161.008 216.598 160.887 216.686 160.798C216.774 160.709 216.894 160.659 217.018 160.659H259.535C259.658 160.661 259.777 160.712 259.864 160.801C259.952 160.889 260.002 161.009 260.005 161.134V181.483C260.005 181.609 259.955 181.73 259.867 181.819C259.779 181.908 259.659 181.958 259.535 181.958ZM217.488 181.008H259.065V161.609H217.488V181.008Z" fill="#D1D3D4"/>
<path d="M246.379 87.8103L200.622 48.6894L187.617 64.225L233.375 103.346L246.379 87.8103Z" fill="white"/>
<path d="M233.393 103.764C233.293 103.763 233.196 103.726 233.121 103.659L187.361 64.5475C187.317 64.5108 187.281 64.4657 187.254 64.4148C187.228 64.3638 187.211 64.308 187.206 64.2506C187.201 64.1932 187.207 64.1354 187.224 64.0803C187.241 64.0253 187.268 63.9742 187.305 63.93L200.315 48.3975C200.35 48.353 200.394 48.3165 200.444 48.2903C200.494 48.2641 200.55 48.2489 200.606 48.2455C200.661 48.2394 200.717 48.2447 200.771 48.261C200.824 48.2774 200.873 48.3044 200.916 48.3405L246.675 87.4615C246.761 87.5354 246.815 87.6403 246.826 87.7539C246.837 87.8675 246.803 87.9808 246.732 88.0695L233.76 103.612C233.685 103.698 233.581 103.753 233.468 103.764H233.393ZM188.273 64.158L233.393 102.719L245.839 87.8415L200.69 49.3L188.273 64.158Z" fill="#231F20"/>
<path d="M102.348 184.4H42.4135V204.748H102.348V184.4Z" fill="white"/>
<path d="M102.348 205.224H42.4136C42.289 205.224 42.1694 205.174 42.0813 205.084C41.9931 204.995 41.9436 204.875 41.9436 204.749V184.4C41.9436 184.274 41.9931 184.153 42.0813 184.064C42.1694 183.975 42.289 183.925 42.4136 183.925H102.348C102.473 183.925 102.592 183.975 102.68 184.064C102.768 184.153 102.818 184.274 102.818 184.4V204.749C102.816 204.874 102.765 204.993 102.678 205.082C102.59 205.17 102.472 205.221 102.348 205.224ZM42.8836 204.274H101.878V184.875H42.8836V204.274Z" fill="#D1D3D4"/>
<path d="M164.914 184.4H104.98V204.748H164.914V184.4Z" fill="white"/>
<path d="M164.914 205.224H104.98C104.856 205.221 104.738 205.17 104.65 205.082C104.563 204.993 104.512 204.874 104.51 204.749V184.4C104.51 184.274 104.559 184.153 104.648 184.064C104.736 183.975 104.855 183.925 104.98 183.925H164.914C165.039 183.925 165.159 183.975 165.247 184.064C165.335 184.153 165.384 184.274 165.384 184.4V204.749C165.384 204.875 165.335 204.995 165.247 205.084C165.159 205.174 165.039 205.224 164.914 205.224ZM105.45 204.274H164.444V184.875H105.45V204.274Z" fill="#D1D3D4"/>
<path d="M227.49 184.4H167.556V204.748H227.49V184.4Z" fill="white"/>
<path d="M227.49 205.224H167.556C167.431 205.224 167.311 205.174 167.223 205.084C167.135 204.995 167.086 204.875 167.086 204.749V184.4C167.086 184.274 167.135 184.153 167.223 184.064C167.311 183.975 167.431 183.925 167.556 183.925H227.49C227.615 183.925 227.734 183.975 227.822 184.064C227.91 184.153 227.96 184.274 227.96 184.4V204.749C227.958 204.874 227.907 204.993 227.82 205.082C227.732 205.17 227.614 205.221 227.49 205.224ZM168.026 204.274H227.02V184.875H168.026V204.274Z" fill="#D1D3D4"/>
<path d="M215.195 63.8729C215.11 64.1484 215.026 64.4334 214.932 64.7089C214.133 67.0079 212.535 69.2309 213.005 71.6154C213.284 72.7085 213.823 73.7161 214.574 74.5509C217.836 78.6264 222.658 81.7424 228.054 80.9729C230.526 80.6214 232.942 78.9019 233.44 76.4319C233.891 74.2089 232.763 71.9859 231.485 70.1239C228.82 66.4631 225.563 63.2834 221.85 60.7189C220.741 59.9304 219.397 59.1799 218.09 59.5409C217.594 59.7199 217.142 60.0054 216.766 60.3776C216.389 60.7499 216.097 61.2002 215.909 61.6974C215.614 62.402 215.375 63.1296 215.195 63.8729Z" fill="white"/>
<path d="M226.437 81.5238C222.066 81.5238 217.695 79.1488 214.217 74.8739C213.425 73.978 212.858 72.9028 212.563 71.7389C212.196 69.8959 212.977 68.1669 213.719 66.5044C214.001 65.8869 214.293 65.2409 214.509 64.6044C214.603 64.3384 214.678 64.0629 214.763 63.7874L214.857 63.4549C215.021 62.806 215.235 62.1709 215.496 61.5549C215.714 61.0015 216.046 60.5017 216.471 60.0888C216.896 59.6759 217.403 59.3595 217.959 59.1609C219.481 58.7429 220.957 59.6074 222.076 60.4054C225.825 63.0023 229.119 66.213 231.823 69.9054C232.933 71.5394 234.361 73.9999 233.844 76.5554C233.327 79.1109 230.977 81.0298 228.101 81.4383C227.549 81.508 226.993 81.5366 226.437 81.5238V81.5238ZM218.795 59.8829C218.595 59.8847 218.397 59.9103 218.203 59.9589C217.775 60.1244 217.387 60.3791 217.063 60.7065C216.739 61.0339 216.487 61.4265 216.323 61.8589C216.078 62.4402 215.88 63.0407 215.731 63.6544L215.627 63.9774C215.552 64.2719 215.458 64.5664 215.364 64.8514C215.129 65.5069 214.838 66.1719 214.556 66.8084C213.832 68.4139 213.146 69.9434 213.456 71.5584C213.725 72.579 214.231 73.5201 214.932 74.3039C218.645 78.9398 223.392 81.2293 228.026 80.5738C230.094 80.2793 232.547 78.8353 233.045 76.3749C233.497 74.1519 232.181 71.9004 231.165 70.3994C228.527 66.7838 225.304 63.6429 221.634 61.1084C220.832 60.4193 219.842 59.992 218.795 59.8829V59.8829Z" fill="#231F20"/>
</svg>
