<svg width="16" height="16" viewBox="0 0 16 16" fill="none" xmlns="http://www.w3.org/2000/svg">
<path d="M9 10V9H11V10H9ZM14 9V10H12V9H14ZM9 8V7H11V8H9ZM14 7V8H12V7H14ZM9 12V11H11V12H9ZM14 11V12H12V11H14ZM9 14V13H11V14H9ZM14 13V14H12V13H14ZM11.3984 0L16 4.60156V16H3V13.375L0 12.8984V4L3 3.57031V0H11.3984ZM3.5 9.17969H3.51562L4.46875 11H5.78125L4.26562 8.47656L5.74219 6H4.50781L3.55469 7.79688H3.53906L2.70312 6H1.35156L2.78906 8.5L1.21875 11H2.53906L3.5 9.17969ZM15 15V6H9V5H10V4H9V3H10V1H4V3.42969L7 3V14L4 13.5312V15H15ZM11 5H15L11 1V5Z" fill="white"/>
</svg>
