<svg width="48" height="40" viewBox="0 0 48 40" fill="none" xmlns="http://www.w3.org/2000/svg">
<path d="M32 13V14.7109L26 20.7109V27H22V20.7109L16 14.7109V13H32ZM31 14H17V14.2891L23 20.2891V26H25V20.2891L31 14.2891V14Z" fill="#162938"/>
<path d="M8 1H40V-1H8V1ZM47 8V32H49V8H47ZM40 39H8V41H40V39ZM1 32V8H-1V32H1ZM8 39C4.13401 39 1 35.866 1 32H-1C-1 36.9706 3.02944 41 8 41V39ZM47 32C47 35.866 43.866 39 40 39V41C44.9706 41 49 36.9706 49 32H47ZM40 1C43.866 1 47 4.13401 47 8H49C49 3.02944 44.9706 -1 40 -1V1ZM8 -1C3.02944 -1 -1 3.02944 -1 8H1C1 4.13401 4.13401 1 8 1V-1Z" fill="#162938"/>
</svg>
