<svg width="24" height="24" viewBox="0 0 24 24" fill="none" xmlns="http://www.w3.org/2000/svg">
<path d="M17.2486 0.333313C21.2036 0.333313 23.8519 3.10998 23.8519 7.23998V16.7728C23.8519 20.8911 21.2036 23.6666 17.2486 23.6666H7.13356C3.17856 23.6666 0.518555 20.8911 0.518555 16.7728V7.23998C0.518555 3.10998 3.17856 0.333313 7.13356 0.333313H17.2486ZM12.1736 10.2278C11.6136 10.2278 11.1586 10.6933 11.1586 11.2545V16.4111C11.1586 16.9711 11.6136 17.4261 12.1736 17.4261C12.7452 17.4261 13.2002 16.9711 13.2002 16.4111V11.2545C13.2002 10.6933 12.7452 10.2278 12.1736 10.2278ZM12.1969 6.52948C11.6252 6.52948 11.1702 6.98448 11.1702 7.55615C11.1702 8.11498 11.6252 8.57115 12.1736 8.57115C12.7569 8.57115 13.2119 8.11498 13.2119 7.55615C13.2119 6.98448 12.7569 6.52948 12.1969 6.52948Z" fill="#137AD1"/>
</svg>
