<svg width="20" height="20" viewBox="0 0 20 20" fill="none" xmlns="http://www.w3.org/2000/svg">
<path d="M5.86914 11.25L8.75 19.9023V20H7.4707L6.63086 17.5H3.36914L2.5293 20H1.25V19.9023L4.13086 11.25H5.86914ZM6.2207 16.25L5 12.5977L3.7793 16.25H6.2207ZM8.7207 5C8.74023 5.42318 8.75 5.83984 8.75 6.25C8.75 6.45833 8.74674 6.66667 8.74023 6.875C8.74023 7.08333 8.73698 7.29167 8.73047 7.5H7.5V8.75H5.10742C5.13997 8.95833 5.17253 9.16667 5.20508 9.375C5.24414 9.58333 5.28971 9.79167 5.3418 10H4.08203C4.02995 9.79167 3.98763 9.58333 3.95508 9.375C3.92904 9.16667 3.90299 8.95833 3.87695 8.75H1.83594C1.96615 8.98438 2.11589 9.20573 2.28516 9.41406C2.46094 9.6224 2.64648 9.81771 2.8418 10H2.5L2.06055 10.8789C1.40299 10.2865 0.895182 9.58984 0.537109 8.78906C0.179036 7.98177 0 7.13542 0 6.25C0 5.67708 0.0748698 5.1237 0.224609 4.58984C0.374349 4.05599 0.582682 3.55794 0.849609 3.0957C1.12305 2.63346 1.44857 2.21354 1.82617 1.83594C2.21029 1.45182 2.63346 1.1263 3.0957 0.859375C3.55794 0.585938 4.05599 0.374349 4.58984 0.224609C5.1237 0.0748698 5.67708 0 6.25 0C6.82292 0 7.3763 0.0748698 7.91016 0.224609C8.44401 0.374349 8.94206 0.585938 9.4043 0.859375C9.86654 1.1263 10.2865 1.45182 10.6641 1.83594C11.0482 2.21354 11.3737 2.63346 11.6406 3.0957C11.9141 3.55794 12.1257 4.05599 12.2754 4.58984C12.4251 5.1237 12.5 5.67708 12.5 6.25C12.5 6.45833 12.487 6.66667 12.4609 6.875C12.4414 7.08333 12.4121 7.29167 12.373 7.5H11.1621C11.2728 7.07682 11.3281 6.66016 11.3281 6.25C11.3281 5.83984 11.2728 5.42318 11.1621 5H8.7207ZM6.25 1.17188C6.1263 1.17188 6.01237 1.22396 5.9082 1.32812C5.81055 1.43229 5.7194 1.56901 5.63477 1.73828C5.55664 1.90104 5.48828 2.08333 5.42969 2.28516C5.37109 2.48047 5.31901 2.67578 5.27344 2.87109C5.23438 3.0599 5.20182 3.23568 5.17578 3.39844C5.14974 3.55469 5.13021 3.67188 5.11719 3.75H7.37305C7.36003 3.67839 7.34049 3.56445 7.31445 3.4082C7.28841 3.24544 7.2526 3.06966 7.20703 2.88086C7.16797 2.69206 7.11589 2.49674 7.05078 2.29492C6.99219 2.0931 6.92057 1.91081 6.83594 1.74805C6.75781 1.57878 6.66992 1.44206 6.57227 1.33789C6.47461 1.22721 6.36719 1.17188 6.25 1.17188ZM3.7793 7.5C3.75977 7.08333 3.75 6.66667 3.75 6.25C3.75 5.83984 3.75977 5.42318 3.7793 5H1.33789C1.22721 5.42318 1.17188 5.83984 1.17188 6.25C1.17188 6.66016 1.22721 7.07682 1.33789 7.5H3.7793ZM3.88672 3.75C3.92578 3.3724 3.98438 2.99479 4.0625 2.61719C4.14062 2.23958 4.2513 1.875 4.39453 1.52344C3.85417 1.73828 3.36263 2.03776 2.91992 2.42188C2.48372 2.79948 2.1224 3.24219 1.83594 3.75H3.88672ZM7.49023 7.5C7.50977 7.08333 7.51953 6.66667 7.51953 6.25C7.51953 5.83984 7.50977 5.42318 7.49023 5H5.00977C4.99023 5.42318 4.98047 5.83984 4.98047 6.25C4.98047 6.66667 4.99023 7.08333 5.00977 7.5H7.49023ZM8.05664 1.51367C8.20638 1.86523 8.32357 2.22982 8.4082 2.60742C8.49284 2.98503 8.55794 3.36589 8.60352 3.75H10.6641C10.3711 3.24219 10 2.79622 9.55078 2.41211C9.10807 2.02148 8.61003 1.72201 8.05664 1.51367ZM13.584 8.68164C13.584 8.48633 13.5807 8.28776 13.5742 8.08594C13.5677 7.88411 13.5417 7.6888 13.4961 7.5C13.9453 7.5 14.3913 7.51953 14.834 7.55859C14.873 7.5651 14.9121 7.57487 14.9512 7.58789C14.9967 7.60091 15.0195 7.63346 15.0195 7.68555C15.0195 7.7181 15.0098 7.75716 14.9902 7.80273C14.9707 7.84831 14.9544 7.88737 14.9414 7.91992C14.9284 7.95898 14.9154 8.01107 14.9023 8.07617C14.8958 8.14128 14.8893 8.21289 14.8828 8.29102C14.8828 8.36263 14.8828 8.43424 14.8828 8.50586C14.8828 8.57096 14.8828 8.62305 14.8828 8.66211V8.78906H17.7734C18.0469 8.78906 18.3171 8.78581 18.584 8.7793C18.8574 8.77279 19.1309 8.76628 19.4043 8.75977C19.4499 8.75977 19.4922 8.76953 19.5312 8.78906C19.5508 8.82161 19.5605 8.85417 19.5605 8.88672C19.554 8.9974 19.5475 9.11458 19.541 9.23828C19.5345 9.35547 19.5312 9.4694 19.5312 9.58008V10.1465C19.5312 10.3809 19.5345 10.6185 19.541 10.8594C19.5475 11.0938 19.554 11.3281 19.5605 11.5625C19.5605 11.582 19.5573 11.6048 19.5508 11.6309C19.5508 11.6569 19.5443 11.6764 19.5312 11.6895C19.4792 11.7025 19.4368 11.709 19.4043 11.709C19.3717 11.709 19.2904 11.7122 19.1602 11.7188C19.0299 11.7188 18.8965 11.7188 18.7598 11.7188C18.6361 11.7188 18.5254 11.7155 18.4277 11.709C18.3301 11.7025 18.2747 11.6927 18.2617 11.6797C18.2487 11.6276 18.2389 11.5495 18.2324 11.4453C18.2324 11.3411 18.2324 11.224 18.2324 11.0938C18.2324 10.8789 18.2357 10.6576 18.2422 10.4297C18.2487 10.2018 18.252 10.0326 18.252 9.92188H10.4199C10.4199 9.94792 10.4199 9.99674 10.4199 10.0684C10.4199 10.1335 10.4199 10.2148 10.4199 10.3125C10.4264 10.4036 10.4297 10.5046 10.4297 10.6152C10.4297 10.7194 10.4297 10.8268 10.4297 10.9375C10.4297 11.1263 10.4264 11.2988 10.4199 11.4551C10.4134 11.6048 10.4036 11.6862 10.3906 11.6992C10.3385 11.7122 10.2962 11.7188 10.2637 11.7188H9.26758C9.19596 11.7188 9.15365 11.709 9.14062 11.6895C9.1276 11.6699 9.12109 11.6276 9.12109 11.5625C9.1276 11.3021 9.13086 11.0449 9.13086 10.791C9.13086 10.5371 9.13086 10.2799 9.13086 10.0195C9.13086 9.83073 9.13086 9.64193 9.13086 9.45312C9.13086 9.26432 9.1276 9.07552 9.12109 8.88672C9.12109 8.85417 9.1276 8.81836 9.14062 8.7793C9.19271 8.76628 9.23503 8.75977 9.26758 8.75977C9.54102 8.76628 9.8112 8.77279 10.0781 8.7793C10.3516 8.78581 10.625 8.78906 10.8984 8.78906H13.584V8.68164ZM19.8242 14.082C19.8372 14.1341 19.8438 14.1764 19.8438 14.209V15.1465C19.8438 15.1725 19.8372 15.2116 19.8242 15.2637C19.7721 15.2767 19.7298 15.2832 19.6973 15.2832C19.4368 15.2767 19.1797 15.2702 18.9258 15.2637C18.6719 15.2572 18.4147 15.2539 18.1543 15.2539H15.0195V15.5762C15.0195 15.9147 15.0228 16.2533 15.0293 16.5918C15.0358 16.9303 15.0456 17.2689 15.0586 17.6074V17.6465C15.0586 17.8027 15.0293 17.959 14.9707 18.1152C14.9121 18.2715 14.8177 18.3952 14.6875 18.4863C14.5964 18.5514 14.4661 18.6035 14.2969 18.6426C14.1341 18.6751 13.9583 18.7012 13.7695 18.7207C13.5807 18.7337 13.3952 18.7435 13.2129 18.75C13.0371 18.75 12.8971 18.75 12.793 18.75C12.7539 18.75 12.6921 18.75 12.6074 18.75C12.5228 18.7435 12.4642 18.724 12.4316 18.6914C12.4121 18.6719 12.3893 18.6198 12.3633 18.5352C12.3372 18.4505 12.3177 18.3919 12.3047 18.3594C12.2591 18.1901 12.2038 18.0339 12.1387 17.8906C12.0801 17.7409 12.0052 17.5911 11.9141 17.4414C12.1354 17.4674 12.3568 17.487 12.5781 17.5C12.7995 17.5065 13.0208 17.5098 13.2422 17.5098C13.3984 17.5098 13.5156 17.487 13.5938 17.4414C13.6784 17.3893 13.7207 17.2786 13.7207 17.1094V15.2539H10.6055C10.3451 15.2539 10.0846 15.2572 9.82422 15.2637C9.5638 15.2702 9.30339 15.2767 9.04297 15.2832C8.99089 15.2832 8.95182 15.2734 8.92578 15.2539C8.91276 15.2148 8.90625 15.179 8.90625 15.1465V14.209C8.90625 14.1895 8.90625 14.1667 8.90625 14.1406C8.91276 14.1081 8.92253 14.0853 8.93555 14.0723C8.97461 14.0592 9.01042 14.0527 9.04297 14.0527C9.30339 14.0592 9.5638 14.0658 9.82422 14.0723C10.0846 14.0788 10.3451 14.082 10.6055 14.082H13.7207C13.7077 13.9128 13.6979 13.7435 13.6914 13.5742C13.6914 13.3984 13.6751 13.2259 13.6426 13.0566C13.7728 13.0697 13.8997 13.0827 14.0234 13.0957C14.1536 13.1022 14.2839 13.112 14.4141 13.125C14.4271 13.125 14.4368 13.1283 14.4434 13.1348C14.4564 13.1348 14.4694 13.1348 14.4824 13.1348C14.7103 12.972 14.9284 12.7995 15.1367 12.6172C15.3451 12.4349 15.5534 12.2493 15.7617 12.0605H12.7539C12.4805 12.0605 12.207 12.0638 11.9336 12.0703C11.6667 12.0768 11.3965 12.0833 11.123 12.0898C11.071 12.0898 11.0319 12.0801 11.0059 12.0605C10.9928 12.0215 10.9863 11.9857 10.9863 11.9531V11.0254C10.9863 10.9993 10.9928 10.9603 11.0059 10.9082C11.0579 10.8952 11.097 10.8887 11.123 10.8887C11.3965 10.8952 11.6667 10.9017 11.9336 10.9082C12.207 10.9147 12.4805 10.918 12.7539 10.918H16.3965C16.5007 10.918 16.5983 10.9049 16.6895 10.8789C16.7806 10.8464 16.862 10.8301 16.9336 10.8301C16.9857 10.8301 17.0605 10.8691 17.1582 10.9473C17.2559 11.0254 17.3535 11.1165 17.4512 11.2207C17.5488 11.3249 17.6335 11.4323 17.7051 11.543C17.7832 11.6471 17.8223 11.7253 17.8223 11.7773C17.8223 11.8424 17.7995 11.8945 17.7539 11.9336C17.7148 11.9661 17.6693 11.9954 17.6172 12.0215C17.526 12.0671 17.4382 12.1257 17.3535 12.1973C17.2689 12.2689 17.1875 12.3372 17.1094 12.4023C16.7708 12.6823 16.429 12.9557 16.084 13.2227C15.7454 13.4831 15.3906 13.7337 15.0195 13.9746V14.082H18.1543C18.4147 14.082 18.6719 14.0788 18.9258 14.0723C19.1797 14.0658 19.4368 14.0592 19.6973 14.0527C19.7428 14.0527 19.7852 14.0625 19.8242 14.082Z" fill="white"/>
</svg>
