<svg width="34" height="32" viewBox="0 0 34 32" fill="none" xmlns="http://www.w3.org/2000/svg">
<path d="M31.0134 2.78151C32.4163 4.07413 33.0869 5.93317 33.48 8.23519C33.8548 10.8025 34.0274 13.3923 33.9964 15.9836C34.0276 18.5749 33.855 21.1648 33.48 23.7321C33.0869 26.0341 32.4163 27.8931 31.0134 29.1857C29.6106 30.4783 27.6681 31.1392 25.217 31.5168C22.4944 31.8673 19.748 32.0275 17.0003 31.9961C14.25 32.0277 11.501 31.8675 8.77586 31.5168C6.33242 31.1392 4.35918 30.5074 2.98716 29.1857C1.61513 27.8641 0.913705 26.0341 0.512889 23.7321C0.140841 21.1646 -0.0291983 18.5747 0.00416182 15.9836C-0.0294519 13.3925 0.140589 10.8026 0.512889 8.23519C0.913705 5.93317 1.5843 4.07413 2.98716 2.78151C4.39001 1.4889 6.33242 0.828064 8.77586 0.450446C11.502 0.111833 14.251 -0.0362303 17.0003 0.00747119C19.7506 -0.0239582 22.4995 0.13624 25.2247 0.486756C27.6681 0.828064 29.6414 1.45985 31.0134 2.78151Z" fill="url(#paint0_linear_134_19270)"/>
<path d="M21.375 7.875H12.625C11.9346 7.875 11.375 8.43464 11.375 9.125V22.875C11.375 23.5654 11.9346 24.125 12.625 24.125H21.375C22.0654 24.125 22.625 23.5654 22.625 22.875V9.125C22.625 8.43464 22.0654 7.875 21.375 7.875Z" stroke="#E8EAEC" stroke-linecap="round" stroke-linejoin="round"/>
<path d="M13.2505 10.375H20.7501V12.875H13.2505V10.375Z" stroke="#E8EAEC" stroke-linecap="round" stroke-linejoin="round"/>
<path d="M13.5625 16.625C14.0803 16.625 14.5 16.2053 14.5 15.6875C14.5 15.1697 14.0803 14.75 13.5625 14.75C13.0447 14.75 12.625 15.1697 12.625 15.6875C12.625 16.2053 13.0447 16.625 13.5625 16.625Z" fill="#E8EAEC"/>
<path d="M17 16.625C17.5178 16.625 17.9375 16.2053 17.9375 15.6875C17.9375 15.1697 17.5178 14.75 17 14.75C16.4822 14.75 16.0625 15.1697 16.0625 15.6875C16.0625 16.2053 16.4822 16.625 17 16.625Z" fill="#E8EAEC"/>
<path d="M20.4375 16.625C20.9553 16.625 21.375 16.2053 21.375 15.6875C21.375 15.1697 20.9553 14.75 20.4375 14.75C19.9197 14.75 19.5 15.1697 19.5 15.6875C19.5 16.2053 19.9197 16.625 20.4375 16.625Z" fill="#E8EAEC"/>
<path d="M13.5625 19.75C14.0803 19.75 14.5 19.3303 14.5 18.8125C14.5 18.2947 14.0803 17.875 13.5625 17.875C13.0447 17.875 12.625 18.2947 12.625 18.8125C12.625 19.3303 13.0447 19.75 13.5625 19.75Z" fill="#E8EAEC"/>
<path d="M17 19.75C17.5178 19.75 17.9375 19.3303 17.9375 18.8125C17.9375 18.2947 17.5178 17.875 17 17.875C16.4822 17.875 16.0625 18.2947 16.0625 18.8125C16.0625 19.3303 16.4822 19.75 17 19.75Z" fill="#E8EAEC"/>
<path d="M13.5625 22.875C14.0803 22.875 14.5 22.4553 14.5 21.9375C14.5 21.4197 14.0803 21 13.5625 21C13.0447 21 12.625 21.4197 12.625 21.9375C12.625 22.4553 13.0447 22.875 13.5625 22.875Z" fill="#E8EAEC"/>
<path d="M17 22.875C17.5178 22.875 17.9375 22.4553 17.9375 21.9375C17.9375 21.4197 17.5178 21 17 21C16.4822 21 16.0625 21.4197 16.0625 21.9375C16.0625 22.4553 16.4822 22.875 17 22.875Z" fill="#E8EAEC"/>
<path d="M21.375 18.8125C21.375 18.2947 20.9553 17.875 20.4375 17.875C19.9197 17.875 19.5 18.2947 19.5 18.8125V21.9375C19.5 22.4553 19.9197 22.875 20.4375 22.875C20.9553 22.875 21.375 22.4553 21.375 21.9375V18.8125Z" fill="#E8EAEC"/>
<defs>
<linearGradient id="paint0_linear_134_19270" x1="32.2158" y1="29.1079" x2="0.575305" y2="-1.59656" gradientUnits="userSpaceOnUse">
<stop stop-color="#1D8248"/>
<stop offset="0.85442" stop-color="#279A58"/>
<stop offset="1" stop-color="#25BE66"/>
</linearGradient>
</defs>
</svg>
