<svg width="17" height="13" viewBox="0 0 17 13" fill="none" xmlns="http://www.w3.org/2000/svg">
<path d="M16.4014 9.33496H11.1543V8.04297H16.4014V9.33496ZM10.7588 3.22656C10.7588 2.28906 11.04 1.52734 11.6025 0.941406C12.165 0.355469 12.8975 0.0625 13.7998 0.0625C14.7021 0.0625 15.4346 0.355469 15.9971 0.941406C16.5654 1.52148 16.8496 2.30078 16.8496 3.2793V3.82422C16.8496 4.75 16.5713 5.50586 16.0146 6.0918C15.4639 6.67773 14.7314 6.9707 13.8174 6.9707C12.8975 6.9707 12.1562 6.67773 11.5938 6.0918C11.0371 5.5 10.7588 4.72656 10.7588 3.77148V3.22656ZM12.2969 3.82422C12.2969 4.4043 12.4316 4.86133 12.7012 5.19531C12.9766 5.52344 13.3486 5.6875 13.8174 5.6875C14.2803 5.6875 14.6436 5.52051 14.9072 5.18652C15.1768 4.85254 15.3115 4.38379 15.3115 3.78027V3.22656C15.3115 2.65234 15.1738 2.19824 14.8984 1.86426C14.623 1.53027 14.2568 1.36328 13.7998 1.36328C13.3486 1.36328 12.9854 1.53027 12.71 1.86426C12.4346 2.19824 12.2969 2.66406 12.2969 3.26172V3.82422ZM9.68652 13H6.8916L3.18262 4.67676V13H0.625V0.203125H3.41992L7.1377 8.54395V0.203125H9.68652V13Z" fill="#455460"/>
</svg>
