<svg width="24" height="24" viewBox="0 0 24 24" fill="none" xmlns="http://www.w3.org/2000/svg">
<path d="M19 4V20H6V18.0156H5V17.0156H6V15.0078H5V14.0078H6V10.0078H5V9.00781H6V7.00781H5V6.00781H6V4H19ZM18 5H7V19H18V5ZM17 8H12V7H17V8ZM17 10H12V9H17V10ZM9.5 16.9688C9.29688 16.9688 9.10417 16.9323 8.92188 16.8594C8.74479 16.7812 8.58854 16.6771 8.45312 16.5469C8.32292 16.4115 8.21875 16.2552 8.14062 16.0781C8.06771 15.8958 8.03125 15.7031 8.03125 15.5C8.03125 15.2969 8.06771 15.1068 8.14062 14.9297C8.21875 14.7526 8.32292 14.599 8.45312 14.4688C8.58854 14.3333 8.74479 14.2266 8.92188 14.1484C9.10417 14.0703 9.29688 14.0312 9.5 14.0312C9.70312 14.0312 9.89323 14.0703 10.0703 14.1484C10.2474 14.2266 10.401 14.3333 10.5312 14.4688C10.6667 14.599 10.7734 14.7526 10.8516 14.9297C10.9297 15.1068 10.9688 15.2969 10.9688 15.5C10.9688 15.7031 10.9297 15.8958 10.8516 16.0781C10.7734 16.2552 10.6667 16.4115 10.5312 16.5469C10.401 16.6771 10.2474 16.7812 10.0703 16.8594C9.89323 16.9323 9.70312 16.9688 9.5 16.9688ZM9.5 14.9688C9.34896 14.9688 9.22135 15.0208 9.11719 15.125C9.01823 15.224 8.96875 15.349 8.96875 15.5C8.96875 15.651 9.01823 15.7786 9.11719 15.8828C9.22135 15.9818 9.34896 16.0312 9.5 16.0312C9.65104 16.0312 9.77604 15.9818 9.875 15.8828C9.97917 15.7786 10.0312 15.651 10.0312 15.5C10.0312 15.349 9.97917 15.224 9.875 15.125C9.77604 15.0208 9.65104 14.9688 9.5 14.9688ZM9.5 9.96875C9.29688 9.96875 9.10417 9.93229 8.92188 9.85938C8.74479 9.78125 8.58854 9.67708 8.45312 9.54688C8.32292 9.41146 8.21875 9.25521 8.14062 9.07812C8.06771 8.89583 8.03125 8.70312 8.03125 8.5C8.03125 8.29688 8.06771 8.10677 8.14062 7.92969C8.21875 7.7526 8.32292 7.59896 8.45312 7.46875C8.58854 7.33333 8.74479 7.22656 8.92188 7.14844C9.10417 7.07031 9.29688 7.03125 9.5 7.03125C9.70312 7.03125 9.89323 7.07031 10.0703 7.14844C10.2474 7.22656 10.401 7.33333 10.5312 7.46875C10.6667 7.59896 10.7734 7.7526 10.8516 7.92969C10.9297 8.10677 10.9688 8.29688 10.9688 8.5C10.9688 8.70312 10.9297 8.89583 10.8516 9.07812C10.7734 9.25521 10.6667 9.41146 10.5312 9.54688C10.401 9.67708 10.2474 9.78125 10.0703 9.85938C9.89323 9.93229 9.70312 9.96875 9.5 9.96875ZM9.5 7.96875C9.34896 7.96875 9.22135 8.02083 9.11719 8.125C9.01823 8.22396 8.96875 8.34896 8.96875 8.5C8.96875 8.65104 9.01823 8.77865 9.11719 8.88281C9.22135 8.98177 9.34896 9.03125 9.5 9.03125C9.65104 9.03125 9.77604 8.98177 9.875 8.88281C9.97917 8.77865 10.0312 8.65104 10.0312 8.5C10.0312 8.34896 9.97917 8.22396 9.875 8.125C9.77604 8.02083 9.65104 7.96875 9.5 7.96875ZM17 15H12V14H17V15ZM17 17H12V16H17V17Z" fill="white"/>
</svg>
