<svg width="14" height="14" viewBox="0 0 14 14" fill="none" xmlns="http://www.w3.org/2000/svg">
<path d="M9.1875 0C9.62956 0 10.0557 0.0569661 10.4658 0.170898C10.876 0.284831 11.2588 0.446615 11.6143 0.65625C11.9697 0.865885 12.2933 1.11882 12.585 1.41504C12.8812 1.70671 13.1341 2.03027 13.3438 2.38574C13.5534 2.74121 13.7152 3.12402 13.8291 3.53418C13.943 3.94434 14 4.37044 14 4.8125C14 5.25456 13.943 5.68066 13.8291 6.09082C13.7152 6.50098 13.5534 6.88379 13.3438 7.23926C13.1341 7.59473 12.8812 7.92057 12.585 8.2168C12.2933 8.50846 11.9697 8.75911 11.6143 8.96875C11.2588 9.17839 10.876 9.34017 10.4658 9.4541C10.0557 9.56803 9.62956 9.625 9.1875 9.625C8.61784 9.625 8.07096 9.5293 7.54688 9.33789C7.02734 9.14648 6.54883 8.87077 6.11133 8.51074L0.745117 13.8701C0.658529 13.9567 0.55599 14 0.4375 14C0.31901 14 0.216471 13.9567 0.129883 13.8701C0.0432943 13.7835 0 13.681 0 13.5625C0 13.444 0.0432943 13.3415 0.129883 13.2549L5.48926 7.88867C5.12923 7.45117 4.85352 6.97266 4.66211 6.45312C4.4707 5.92904 4.375 5.38216 4.375 4.8125C4.375 4.37044 4.43197 3.94434 4.5459 3.53418C4.65983 3.12402 4.82161 2.74121 5.03125 2.38574C5.24089 2.03027 5.49154 1.70671 5.7832 1.41504C6.07943 1.11882 6.40527 0.865885 6.76074 0.65625C7.11621 0.446615 7.49902 0.284831 7.90918 0.170898C8.31934 0.0569661 8.74544 0 9.1875 0ZM9.1875 8.75C9.72982 8.75 10.2402 8.64746 10.7188 8.44238C11.1973 8.23275 11.6143 7.9502 11.9697 7.59473C12.3252 7.23926 12.6055 6.82227 12.8105 6.34375C13.0202 5.86523 13.125 5.35482 13.125 4.8125C13.125 4.27018 13.0202 3.75977 12.8105 3.28125C12.6055 2.80273 12.3252 2.38574 11.9697 2.03027C11.6143 1.6748 11.1973 1.39453 10.7188 1.18945C10.2402 0.979818 9.72982 0.875 9.1875 0.875C8.64518 0.875 8.13477 0.979818 7.65625 1.18945C7.17773 1.39453 6.76074 1.6748 6.40527 2.03027C6.0498 2.38574 5.76725 2.80273 5.55762 3.28125C5.35254 3.75977 5.25 4.27018 5.25 4.8125C5.25 5.35482 5.35254 5.86523 5.55762 6.34375C5.76725 6.82227 6.0498 7.23926 6.40527 7.59473C6.76074 7.9502 7.17773 8.23275 7.65625 8.44238C8.13477 8.64746 8.64518 8.75 9.1875 8.75Z" fill="black"/>
</svg>
